<svg xmlns="http://www.w3.org/2000/svg" viewBox="0 0 24 24">
  <g transform="translate(-0.6,0.4)" fill="#25F4EE">
    <path d="M14 3v7.2c1.5.9 3.1 1.3 4.8 1.4V9.6c-1.4-.1-2.7-.5-3.8-1.2V15a4 4 0 1 1-4-4c.3 0 .6 0 .9.1V13.2a4 4 0 1 0 2.1 3.5V3z"/>
  </g>
  <g transform="translate(0.6,-0.4)" fill="#FE2C55">
    <path d="M14 3v7.2c1.5.9 3.1 1.3 4.8 1.4V9.6c-1.4-.1-2.7-.5-3.8-1.2V15a4 4 0 1 1-4-4c.3 0 .6 0 .9.1V13.2a4 4 0 1 0 2.1 3.5V3z"/>
  </g>
  <path d="M14 3v7.2c1.5.9 3.1 1.3 4.8 1.4V9.6c-1.4-.1-2.7-.5-3.8-1.2V15a4 4 0 1 1-4-4c.3 0 .6 0 .9.1V13.2a4 4 0 1 0 2.1 3.5V3z" fill="#000000"/>
</svg>
