<svg xmlns="http://www.w3.org/2000/svg" width="900" height="700" viewBox="0 0 900 700" role="img" aria-label="eSIM">
  <defs>
    <linearGradient id="g" x1="0" x2="1" y1="0" y2="1">
      <stop offset="0" stop-color="#0f172a"/>
      <stop offset="1" stop-color="#1f2937"/>
    </linearGradient>
    <linearGradient id="a" x1="0" x2="1" y1="1" y2="0">
      <stop offset="0" stop-color="#f59e0b"/>
      <stop offset="1" stop-color="#22c55e"/>
    </linearGradient>
  </defs>
  <rect x="0" y="0" width="900" height="700" fill="url(#g)"/>
  <circle cx="710" cy="140" r="170" fill="url(#a)" opacity="0.25"/>
  <circle cx="210" cy="560" r="220" fill="url(#a)" opacity="0.18"/>
  <g fill="none" stroke="#94a3b8" stroke-width="14" opacity="0.35">
    <rect x="170" y="160" width="560" height="380" rx="48"/>
    <path d="M250 160v-44M330 160v-44M410 160v-44M490 160v-44M570 160v-44M650 160v-44"/>
    <path d="M250 540v44M330 540v44M410 540v44M490 540v44M570 540v44M650 540v44"/>
  </g>
  <text x="450" y="330" text-anchor="middle" font-family="ui-sans-serif, system-ui, -apple-system, Segoe UI, Arial" font-size="96" font-weight="800" fill="#e5e7eb">eSIM</text>
  <text x="450" y="395" text-anchor="middle" font-family="ui-sans-serif, system-ui, -apple-system, Segoe UI, Arial" font-size="28" fill="#cbd5e1">泰國上網卡｜合作導購</text>
</svg>

