<svg version="1.1" id="Layer_1" xmlns="http://www.w3.org/2000/svg" xmlns:xlink="http://www.w3.org/1999/xlink" x="0px" y="0px"
	 width="100%" viewBox="0 0 1024 1024" enable-background="new 0 0 1024 1024" xml:space="preserve">
<path fill="#000000" opacity="1.000000" stroke="none" 
	d="
M654.514709,769.386536 
	C638.211792,819.079163 605.285767,852.908691 557.230164,871.088440 
	C476.822083,901.507263 388.254669,870.724060 342.933228,797.556458 
	C328.508270,774.268677 320.218964,748.790039 317.627869,721.465210 
	C313.480042,677.723816 323.500122,636.855652 342.491608,597.783020 
	C362.057373,557.528992 390.155060,523.679443 421.643890,492.373413 
	C429.009399,485.050659 428.989319,484.993591 437.782562,490.681671 
	C441.979401,493.396454 446.028809,496.346863 450.294495,498.945160 
	C453.846893,501.108978 453.892700,502.853180 450.831360,505.735352 
	C430.403503,524.967712 411.679993,545.768372 395.349579,568.586426 
	C375.023804,596.987122 358.609467,627.460999 351.113678,661.869629 
	C340.260162,711.691711 347.836945,757.948975 380.600677,798.370728 
	C404.614380,827.997253 436.010895,846.336243 473.577576,851.093506 
	C531.250183,858.396912 578.954834,839.273743 611.747375,790.053040 
	C640.627136,746.705200 638.369019,688.600830 605.660400,649.176086 
	C586.726379,626.354309 562.547913,612.821716 533.113770,609.235474 
	C500.093781,605.212402 471.436127,614.888550 448.132050,638.676636 
	C433.001526,654.121338 425.333282,673.207642 424.106293,694.830200 
	C422.554779,722.170898 431.837769,744.933716 453.528503,761.892944 
	C481.455200,783.727844 521.481812,780.286316 543.165039,754.062500 
	C555.762878,738.826538 558.883850,721.724243 549.731384,703.346619 
	C542.712036,689.252014 525.820068,681.082458 512.242859,685.414368 
	C505.696320,687.502991 500.871887,691.517334 499.035248,698.518250 
	C497.199249,705.517029 499.964905,710.603821 506.947266,712.784546 
	C515.791626,715.546753 518.100769,718.298767 517.279114,725.098083 
	C516.515625,731.416016 509.884216,736.602417 502.785126,737.379333 
	C487.640289,739.036804 471.526215,724.032166 469.719910,706.779907 
	C466.874176,679.599182 488.307953,656.198425 515.629211,654.499878 
	C554.677612,652.072083 583.575806,685.251648 584.565979,721.304810 
	C585.763916,764.922791 552.348816,796.993835 512.619812,804.265137 
	C457.258850,814.397400 405.840912,776.943115 395.772766,721.335632 
	C385.142365,662.622986 418.049866,606.529297 474.276276,586.544128 
	C548.173950,560.278015 630.344116,600.952148 654.162964,675.692871 
	C664.047241,706.708740 664.297363,737.850098 654.514709,769.386536 
z"/>
<path fill="#000000" opacity="1.000000" stroke="none" 
	d="
M450.966187,439.953369 
	C471.548309,451.139343 490.247498,464.522980 508.814697,478.091003 
	C511.372040,479.959747 512.976746,480.064270 515.653381,478.042145 
	C540.707031,459.114624 566.841431,441.944458 596.020874,429.881470 
	C615.139465,421.977661 634.857788,416.971588 655.726135,417.690369 
	C696.538757,419.096100 728.529480,446.075989 734.960144,483.747894 
	C741.339661,521.120056 720.875732,556.724182 682.341492,570.236816 
	C659.870178,578.116699 637.126587,576.517151 614.448608,570.835938 
	C585.114868,563.487244 559.083923,549.170898 533.930786,532.889954 
	C509.008667,516.758484 486.138855,497.758057 461.379761,481.411713 
	C440.858521,467.863220 419.622650,455.783020 395.438538,449.937347 
	C378.656921,445.880920 362.063599,445.439850 346.375305,454.031036 
	C329.707916,463.158417 320.333588,477.160004 320.204742,496.386780 
	C320.076935,515.456848 329.142639,529.500000 345.756775,538.459412 
	C350.165649,540.837036 350.678284,542.753601 347.982147,546.735657 
	C344.345032,552.107300 341.180756,557.800720 337.855927,563.381287 
	C336.407227,565.812927 334.938873,567.106445 331.847198,565.408264 
	C303.807922,550.006836 289.564270,525.949768 290.076721,494.399536 
	C290.671753,457.764893 318.190857,426.871887 354.364960,419.664886 
	C378.918915,414.773010 402.323334,419.335907 425.226318,428.110809 
	C433.945587,431.451416 442.430695,435.323120 450.966187,439.953369 
M599.452087,461.017700 
	C577.691650,471.144196 557.634949,483.994385 538.146729,498.564789 
	C542.805481,503.296173 547.968323,506.059784 552.839294,509.115692 
	C578.032898,524.921326 603.957581,539.119690 633.771606,544.348389 
	C650.283936,547.244263 666.184753,546.197083 681.203064,537.820007 
	C700.798584,526.889709 710.682495,503.934509 704.353577,483.416901 
	C698.094177,463.124817 678.184570,448.231171 656.893921,447.244354 
	C636.610168,446.304199 618.258301,452.871918 599.452087,461.017700 
z"/>
<path fill="#000000" opacity="1.000000" stroke="none" 
	d="
M480.231689,316.913788 
	C480.963623,337.817505 486.817963,356.768829 497.465485,374.084198 
	C500.651154,379.264862 500.353821,382.849335 496.641022,387.295166 
	C491.854614,393.026520 487.369141,398.989777 481.052155,404.612793 
	C477.609497,399.194489 474.263611,394.297791 471.289062,389.185120 
	C455.523651,362.087830 448.149323,332.847870 450.899445,301.589264 
	C453.529724,271.691925 464.783600,244.876205 482.742218,220.860382 
	C490.459808,210.539795 499.244141,201.250458 509.114624,192.948151 
	C511.650238,190.815384 513.400208,190.755539 515.941589,192.960129 
	C547.606750,220.428772 567.567932,254.413483 573.371521,296.201813 
	C578.355347,332.087219 568.680115,364.807983 551.023376,395.615112 
	C540.031189,414.794128 526.382202,431.972473 510.950134,447.796112 
	C507.893250,450.930573 505.810791,450.838776 502.588318,448.269623 
	C497.907166,444.537567 492.818390,441.319122 487.936249,437.835663 
	C486.198120,436.595490 484.175751,435.624084 482.949707,432.774414 
	C486.666595,428.958160 490.635925,424.987885 494.489563,420.908295 
	C513.694946,400.576904 529.289673,377.893250 538.323853,351.233643 
	C549.792664,317.389587 545.774048,284.966156 528.200012,254.069183 
	C523.855469,246.431015 519.185242,238.999023 512.593689,231.642029 
	C492.037659,256.737793 479.957947,284.173523 480.231689,316.913788 
z"/>
</svg>